<?xml version="1.0" encoding="UTF-8"?>
<svg width="1200pt" height="1200pt" version="1.1" viewBox="0 0 1200 1200" xmlns="http://www.w3.org/2000/svg">
 <g fill="#ff814a">
  <path d="m125.02 0c-31.078 0-56.25 25.172-56.25 56.25v1087.5c0 31.078 25.172 56.25 56.25 56.25s56.25-25.172 56.25-56.25v-1087.5c0-31.078-25.172-56.25-56.25-56.25z"/>
  <path d="m346.03 519.98c19.969 4.0312 114.28 8.9062 151.08 8.5312 36.75 0.42188 131.11-4.5 151.03-8.5312 32.812-6.3281 64.359-36.234 71.625-68.906 4.125-19.781 8.1562-66.094 8.2031-102.94s-4.125-83.109-8.2031-102.94c-7.2656-32.578-38.906-62.391-71.625-68.859-19.969-3.9844-114.28-8.9062-151.03-8.4844-36.797-0.42188-131.26 4.5-151.08 8.4844-32.812 6.375-64.359 36.281-71.625 68.906-4.125 19.781-8.1562 66.094-8.2031 102.94-0.09375 36.797 4.125 83.156 8.2031 102.94 7.2188 32.625 38.859 62.531 71.625 68.859z"/>
  <path d="m1123 954.74c4.125-19.781 8.1562-66.094 8.25-102.94 0.046875-36.844-4.125-83.109-8.25-102.94-7.2188-32.625-38.906-62.531-71.625-68.906-19.969-3.9844-315.94-8.9062-352.69-8.5312-36.797-0.375-332.81 4.5-352.69 8.5312-32.812 6.375-64.359 36.281-71.625 68.906-4.125 19.828-8.1562 66.141-8.2031 102.94-0.09375 36.797 4.125 83.156 8.2031 102.94 7.2188 32.625 38.906 62.531 71.625 68.906 19.969 3.9844 315.94 8.9062 352.69 8.5312 36.797 0.375 332.81-4.5 352.69-8.5312 32.719-6.375 64.406-36.234 71.625-68.906z"/>
 </g>
</svg>
