<?xml version="1.0" encoding="UTF-8"?>
<svg width="1200pt" height="1200pt" version="1.1" viewBox="0 0 1200 1200" xmlns="http://www.w3.org/2000/svg">
 <g fill="#ff814a">
  <path d="m146.4 584.4 962.4 252c34.801 9.6016 67.199-20.398 61.199-56.398l-3.6016-19.199c-20.398-118.8-114-212.4-232.8-234l-153.59-27.602-152.4-284.4c-16.801-32.398-46.801-55.199-82.801-63.602l-81.602-19.199c-20.398-4.8008-38.398 14.398-33.602 34.801l75.602 283.2-264-48-64.801-140.4c-3.6016-7.1992-9.6016-13.199-18-15.602l-93.602-26.398c-19.199-4.8008-37.199 9.6016-36 30l20.398 222c6.0039 54 44.406 99.598 97.203 112.8z"/>
  <path d="m1144.8 966h-1066.8c-14.398 0-25.199 12-25.199 25.199v51.602c0 14.398 12 25.199 25.199 25.199h1065.6c14.398 0 25.199-12 25.199-25.199v-51.602c1.1992-14.398-10.801-25.199-24-25.199z"/>
 </g>
</svg>
