<?xml version="1.0" encoding="UTF-8"?>
<svg width="1200pt" height="1200pt" version="1.1" viewBox="0 0 1200 1200" xmlns="http://www.w3.org/2000/svg">
 <path d="m1072.2 584.44-370.5-279.05c-5.9062-4.5-13.875-5.25-20.484-1.9219-6.6562 3.2812-10.875 10.078-10.875 17.484v131.16l-530.86 0.046875c-10.734 0-19.453 8.7188-19.5 19.453v256.87c0.046876 10.734 8.7188 19.453 19.5 19.453h530.86v131.21c0.046875 7.4062 4.2656 14.203 10.922 17.531 6.6562 3.1875 14.531 2.4375 20.438-1.9688l370.5-279.1c4.9219-3.7031 7.7812-9.4688 7.7812-15.609s-2.8594-11.906-7.7812-15.609z"/>
</svg>
