<?xml version="1.0" encoding="UTF-8"?>
<svg width="1200pt" height="1200pt" version="1.1" viewBox="0 0 1200 1200" xmlns="http://www.w3.org/2000/svg">
 <path d="m375 831.62c-20.992-7.6445-41.207-17.273-60.375-28.75l-40.5 40.5c-13.234 13.312-31.23 20.797-50 20.797s-36.766-7.4844-50-20.797l-29.375-29.375c-13.312-13.234-20.797-31.23-20.797-50s7.4844-36.766 20.797-50l42.75-41.75c-15.469-27.512-27.277-56.93-35.125-87.5h-61.125c-18.676 0-36.59-7.4102-49.809-20.605-13.215-13.195-20.66-31.094-20.691-49.77v-41.125c0.03125-18.676 7.4766-36.574 20.691-49.77 13.219-13.195 31.133-20.605 49.809-20.605h60.5c7.8164-30.602 19.668-60.027 35.25-87.5l-42.25-42.25c-13.344-13.215-20.852-31.219-20.852-50s7.5078-36.785 20.852-50l29.375-29.375c13.215-13.344 31.219-20.852 50-20.852s36.785 7.5078 50 20.852l40.5 40.5c27.707-16.543 57.574-29.164 88.75-37.5v-55.5c0-18.676 7.4102-36.59 20.605-49.809 13.195-13.215 31.094-20.66 49.77-20.691h41.625c18.59 0.16406 36.359 7.6641 49.449 20.867 13.086 13.203 20.426 31.043 20.426 49.633v56.25c31.145 8.3125 60.973 20.938 88.625 37.5l40.5-40.5c13.234-13.312 31.23-20.797 50-20.797s36.766 7.4844 50 20.797l29.375 29.375c13.312 13.234 20.797 31.23 20.797 50s-7.4844 36.766-20.797 50l-42.25 42.25c9.7422 16.793 18.105 34.352 25 52.5 20.992 7.6445 41.207 17.273 60.375 28.75l40.5-40.5c13.234-13.312 31.23-20.797 50-20.797s36.766 7.4844 50 20.797l29.375 29.375c13.312 13.234 20.797 31.23 20.797 50s-7.4844 36.766-20.797 50l-42.125 42.125c15.469 27.512 27.277 56.93 35.125 87.5h59c18.676 0 36.59 7.4102 49.809 20.605 13.215 13.195 20.66 31.094 20.691 49.77v41.625c-0.03125 18.676-7.4766 36.574-20.691 49.77-13.219 13.195-31.133 20.605-49.809 20.605h-60.5c-7.8164 30.602-19.668 60.027-35.25 87.5l42.25 42.25c13.344 13.215 20.852 31.219 20.852 50s-7.5078 36.785-20.852 50l-29.375 29.375c-13.215 13.344-31.219 20.852-50 20.852s-36.785-7.5078-50-20.852l-40.5-40.5c-27.707 16.543-57.574 29.164-88.75 37.5v56.25c0 18.676-7.4102 36.59-20.605 49.809-13.195 13.215-31.094 20.66-49.77 20.691h-41.125c-18.676-0.03125-36.574-7.4766-49.77-20.691-13.195-13.219-20.605-31.133-20.605-49.809v-58.125c-31.145-8.3125-60.973-20.938-88.625-37.5l-40.5 40.5c-13.234 13.312-31.23 20.797-50 20.797s-36.766-7.4844-50-20.797l-29.375-29.375c-13.312-13.234-20.797-31.23-20.797-50s7.4844-36.766 20.797-50l42.25-42.25c-9.2188-16.762-17.074-34.234-23.5-52.25zm107.5-401.38-3.5 25-81.5-81.625c-4.2656-4.2656-10.48-5.9297-16.309-4.3711-5.8242 1.5625-10.375 6.1133-11.938 11.938-1.5586 5.8281 0.10547 12.043 4.3711 16.309l81.5 81.5-25 3.5c-5.6172 1.1562-10.266 5.0898-12.336 10.441-2.0664 5.3516-1.2773 11.387 2.1016 16.023 3.3789 4.6367 8.8828 7.2383 14.609 6.9102l58.5-8c3.7031-0.47656 7.1484-2.1523 9.8125-4.7734 2.6602-2.6172 4.3945-6.0312 4.9375-9.7266l8-58.75c0.94531-4.5938-0.0625-9.3711-2.7812-13.191-2.7188-3.8203-6.9023-6.3359-11.555-6.9453-4.6484-0.60938-9.3398 0.74219-12.953 3.7344-3.6133 2.9883-5.8164 7.3477-6.0859 12.027zm228.38 333 3.5-25 81.5 81.5c4.2656 4.2656 10.48 5.9297 16.309 4.3711 5.8242-1.5625 10.375-6.1133 11.938-11.938 1.5586-5.8281-0.10547-12.043-4.3711-16.309l-81.5-81.5 25-3.5c5.6523-1.1445 10.324-5.0938 12.398-10.473 2.0703-5.3828 1.2539-11.445-2.168-16.086-3.4258-4.6406-8.9805-7.2109-14.73-6.8164l-58.75 8c-3.6523 0.51562-7.0352 2.2109-9.6289 4.8281-2.5977 2.6211-4.2617 6.0156-4.7461 9.6719l-8.125 58.75c-0.39453 5.75 2.1758 11.305 6.8164 14.73 4.6406 3.4219 10.703 4.2383 16.086 2.168 5.3789-2.0742 9.3281-6.7461 10.473-12.398zm-2.125-309.38c-9.8125-52.344-38.418-99.297-80.43-132.03-42.008-32.73-94.531-48.98-147.69-45.691s-103.27 25.887-140.93 63.543c-37.656 37.66-60.254 87.777-63.543 140.93s12.961 105.68 45.691 147.69c32.73 42.012 79.684 70.617 132.03 80.43-0.53906-44.895 10.934-89.113 33.227-128.08 22.293-38.973 54.594-71.273 93.566-93.566 38.969-22.293 83.188-33.766 128.08-33.227zm34.625 2.75c-9.2812-61.848-41.219-118.04-89.605-157.66-48.391-39.621-109.78-59.84-172.24-56.738-62.461 3.1055-121.54 29.312-165.77 73.535-44.223 44.223-70.43 103.3-73.535 165.77-3.1016 62.465 17.117 123.85 56.738 172.24 39.621 48.387 95.812 80.324 157.66 89.605 9.2812 61.848 41.219 118.04 89.605 157.66 48.391 39.621 109.78 59.84 172.24 56.738 62.461-3.1055 121.54-29.312 165.77-73.535 44.223-44.223 70.43-103.3 73.535-165.77 3.1016-62.465-17.117-123.85-56.738-172.24-39.621-48.387-95.812-80.324-157.66-89.605zm117 94.875c-31.121-31.164-70.953-52.168-114.25-60.25 0.53906 44.895-10.934 89.113-33.227 128.08-22.293 38.973-54.594 71.273-93.566 93.566-38.969 22.293-83.188 33.766-128.08 33.227 8.4414 44.969 30.797 86.148 63.906 117.73 33.113 31.578 75.305 51.957 120.62 58.266 45.32 6.3047 91.473-1.7852 131.95-23.125 40.473-21.34 73.219-54.852 93.621-95.809 20.398-40.957 27.418-87.285 20.066-132.45-7.3516-45.16-28.703-86.871-61.039-119.24zm-147.88-64c-39.836-1.2266-79.25 8.4688-113.97 28.043-34.719 19.57-63.418 48.27-82.988 82.988-19.574 34.719-29.27 74.133-28.043 113.97 39.836 1.2266 79.25-8.4688 113.97-28.043 34.719-19.57 63.418-48.27 82.988-82.988 19.574-34.719 29.27-74.133 28.043-113.97z" fill="#ff814a" fill-rule="evenodd"/>
</svg>
