<?xml version="1.0" encoding="UTF-8"?>
<svg width="1200pt" height="1200pt" version="1.1" viewBox="0 0 1200 1200" xmlns="http://www.w3.org/2000/svg">
 <g fill="#ff814a">
  <path d="m881.25 56.25c-5.9023 0-11.457 2.7773-15 7.5l-225 300c-2.8008 3.7344-4.1055 8.375-3.668 13.02 0.44141 4.6484 2.5977 8.9609 6.0508 12.102 3.4531 3.1406 7.9492 4.8789 12.617 4.8789h93.75v712.5c0 4.9727 1.9766 9.7422 5.4922 13.258 3.5156 3.5156 8.2852 5.4922 13.258 5.4922h225c4.9727 0 9.7422-1.9766 13.258-5.4922 3.5156-3.5156 5.4922-8.2852 5.4922-13.258v-712.5h93.75c4.668 0 9.1641-1.7383 12.617-4.8789 3.4531-3.1406 5.6094-7.4531 6.0508-12.102 0.4375-4.6445-0.86719-9.2852-3.668-13.02l-225-300c-3.543-4.7227-9.0977-7.5-15-7.5z"/>
  <path d="m93.75 393.75h93.75v712.5c0 4.9727 1.9766 9.7422 5.4922 13.258 3.5156 3.5156 8.2852 5.4922 13.258 5.4922h225c4.9727 0 9.7422-1.9766 13.258-5.4922 3.5156-3.5156 5.4922-8.2852 5.4922-13.258v-712.5h93.75c4.668 0 9.1641-1.7383 12.617-4.8789 3.4531-3.1406 5.6094-7.4531 6.0508-12.102 0.4375-4.6445-0.86719-9.2852-3.668-13.02l-225-300c-3.543-4.7227-9.0977-7.5-15-7.5s-11.457 2.7773-15 7.5l-225 300c-2.8008 3.7344-4.1055 8.375-3.668 13.02 0.44141 4.6484 2.5977 8.9609 6.0508 12.102 3.4531 3.1406 7.9492 4.8789 12.617 4.8789z"/>
 </g>
</svg>
