<?xml version="1.0" encoding="UTF-8"?>
<svg width="1200pt" height="1200pt" version="1.1" viewBox="0 0 1200 1200" xmlns="http://www.w3.org/2000/svg">
 <g fill="#ff814a">
  <path d="m703.2 690 118.8 32.398c15.602 4.8008 32.398-2.3984 40.801-16.801l16.801-27.602-45.602-63.602c0-1.1992-1.1992-1.1992-1.1992-1.1992l-18 30-92.398-25.199c-19.199-4.8008-39.602 6-44.398 25.199-6.0039 21.605 5.9961 42.004 25.195 46.805z"/>
  <path d="m1074 296.33c35.098 1.3281 62.477 30.859 61.152 65.957-1.3281 35.102-30.859 62.48-65.957 61.156-35.102-1.3281-62.48-30.859-61.156-65.961 1.3281-35.098 30.859-62.477 65.961-61.152"/>
  <path d="m844.8 507.6 38.398-46.801 36-1.1992-55.199 94.797c-7.1992 12-6 27.602 2.3984 39.602l78 109.2-2.3984 115.2c0 16.801 10.801 31.199 26.398 36 2.3984 1.1992 6 1.1992 8.3984 1.1992 20.398 0 37.199-15.602 37.199-36l3.6016-127.2c0-8.3984-2.3984-15.602-7.1992-21.602l-49.199-68.398 57.602-79.199 22.801 48c3.6016 8.3984 10.801 14.398 19.199 16.801 4.8008 1.1992 10.801 1.1992 16.801 0l69.602-19.199c15.602-4.8008 25.199-21.602 21.602-37.199-4.8008-15.602-21.602-25.199-37.199-21.602l-44.398 12-21.602-45.602c-6-12-14.398-22.801-25.199-31.199l-48-33.602c-14.398-9.6016-31.199-15.602-48-14.398l-75.602 2.3984c-8.3984 0-16.801 4.8008-22.801 10.801l-48.004 57.602c-10.801 13.199-8.3984 32.398 3.6016 43.199 13.199 10.801 32.398 9.6016 43.199-3.5977z"/>
  <path d="m1148.4 951.6-1080-303.6c-9.6016-2.3984-19.199-1.1992-26.398 4.8008s-12 14.398-12 24v303.6c0 16.801 13.199 30 30 30h1080c15.602 0 27.602-10.801 30-26.398 1.1992-14.402-7.1992-28.805-21.602-32.402z"/>
  <path d="m626.4 429.6c0 132.55-107.45 240-240 240-132.55 0-240-107.45-240-240 0-132.55 107.45-240 240-240 132.55 0 240 107.45 240 240"/>
 </g>
</svg>
