<?xml version="1.0" encoding="UTF-8"?>
<svg width="1200pt" height="1200pt" version="1.1" viewBox="0 0 1200 1200" xmlns="http://www.w3.org/2000/svg">
 <g fill="#ff814a">
  <path d="m680.4 242.4c21.602-21.602 36-50.398 36-84 0-64.801-52.801-116.4-116.4-116.4-64.801 0-116.4 52.801-116.4 116.4 0 32.398 14.398 62.398 36 84-40.801 15.602-70.801 54-76.801 99.602l-9.6016 82.801c-2.3984 21.602 10.801 40.801 32.398 45.602 9.6016 2.3984 20.398 3.6016 31.199 6l10.801 176.4c1.1992 26.398 22.801 46.801 49.199 46.801h87.602c26.398 0 48-20.398 49.199-46.801l10.801-176.4c10.801-1.1992 20.398-3.6016 31.199-6 21.602-4.8008 34.801-24 32.398-45.602l-9.6016-82.801c-7.1953-46.801-37.195-84-77.996-99.602zm-80.398-158.4c40.801 0 74.398 33.602 74.398 74.398 0 40.801-33.602 75.602-74.398 75.602-40.801 0-74.398-33.602-74.398-75.602 0-40.797 33.598-74.398 74.398-74.398zm81.602 352.8c-9.6016 1.1992-16.801 9.6016-18 19.199l-10.801 193.2c0 4.8008-3.6016 7.1992-8.3984 7.1992h-87.602c-4.8008 0-8.3984-3.6016-8.3984-7.1992l-12.004-193.2c0-9.6016-8.3984-18-18-19.199-15.602-2.3984-30-4.8008-44.398-8.3984l9.6016-82.801c4.8008-40.801 39.602-70.801 80.398-70.801h72c40.801 0 75.602 31.199 80.398 70.801l9.6016 82.801c-14.398 3.5977-30 5.9961-44.398 8.3984z"/>
  <path d="m386.4 517.2h-129.6v-24c0-18-10.801-34.801-26.398-43.199-16.801-8.3984-36-6-50.398 4.8008l-130.8 102c-12 9.6016-19.199 22.801-19.199 38.398 0 14.398 7.1992 28.801 19.199 38.398l130.8 100.8c8.3984 7.1992 19.199 9.6016 28.801 9.6016 7.1992 0 14.398-1.1992 21.602-4.8008 16.801-8.3984 26.398-25.199 26.398-43.199v-24h129.6c20.398 0 37.199-16.801 37.199-37.199v-80.398c0-20.402-16.801-37.203-37.203-37.203zm-3.5977 114h-146.4c-12 0-20.398 9.6016-20.398 20.398v44.402c0 3.6016-2.3984 4.8008-3.6016 6-1.1992 1.1992-3.6016 1.1992-7.1992-1.1992l-130.8-100.8c-2.3984-1.1992-2.3984-3.6016-2.3984-4.8008s0-3.6016 2.3984-4.8008l130.8-102c1.1992-1.1992 2.3984-1.1992 3.6016-1.1992 1.1992 0 2.3984 0 2.3984 1.1992 1.1992 1.1992 3.6016 2.3984 3.6016 6v44.398c0 12 9.6016 20.398 20.398 20.398h146.4l0.003906 72.004z"/>
  <path d="m1150.8 556.8-130.8-100.8c-14.398-10.801-33.602-13.199-50.398-4.8008-16.801 8.3984-26.398 25.199-26.398 43.199v24h-129.6c-20.398 0-37.199 16.801-37.199 37.199v80.398c0 20.398 16.801 37.199 37.199 37.199h129.6v24c0 18 10.801 34.801 26.398 43.199 7.1992 3.6016 14.398 4.8008 21.602 4.8008 10.801 0 20.398-3.6016 28.801-9.6016l130.8-102c12-9.6016 19.199-22.801 19.199-38.398-0.003906-15.594-7.2031-28.797-19.203-38.395zm-25.199 43.199-130.8 102c-2.3984 2.3984-6 1.1992-7.1992 1.1992-1.2031-1.1992-3.6016-3.5977-3.6016-7.1992v-44.398c0-12-9.6016-20.398-20.398-20.398l-146.4-0.003906v-73.199h146.4c12 0 20.398-9.6016 20.398-20.398v-44.398c0-3.6016 2.3984-4.8008 3.6016-6 1.1992-1.1992 3.6016-1.1992 7.1992 1.1992l130.8 102c2.3984 1.1992 2.3984 3.6016 2.3984 4.8008 0.003906 1.1953 0.003906 3.5977-2.3945 4.7969z"/>
  <path d="m702 931.2h-24v-129.6c0-20.398-16.801-37.199-37.199-37.199h-80.398c-20.398 0-37.199 16.801-37.199 37.199v129.6h-24c-18 0-34.801 10.801-43.199 26.398-8.3984 16.801-6 36 4.8008 50.398l102 130.8c9.6016 12 22.801 19.199 38.398 19.199 14.398 0 28.801-7.1992 38.398-19.199l99.598-130.8c10.801-14.398 13.199-33.602 4.8008-50.398-7.1992-16.801-24-26.402-42-26.402zm4.8008 51.602-102 130.8c-3.6016 4.8008-7.1992 4.8008-10.801 0l-102-130.8c-2.3984-2.3984-1.1992-6-1.1992-7.1992 1.1992-1.1992 2.3984-3.6016 6-3.6016h44.398c12 0 20.398-9.6016 20.398-20.398l0.003906-146.4h74.398v146.4c0 12 9.6016 20.398 20.398 20.398h44.398c3.6016 0 4.8008 2.3984 6 3.6016 1.2031 1.2031 2.4023 4.8008 0.003906 7.2031z"/>
 </g>
</svg>
