<?xml version="1.0" encoding="UTF-8"?>
<svg width="1200pt" height="1200pt" version="1.1" viewBox="0 0 1200 1200" xmlns="http://www.w3.org/2000/svg">
 <g fill="#ff814a">
  <path d="m346.88 352.56c4.9727 0 9.7422-1.9727 13.258-5.4922 3.5156-3.5156 5.4922-8.2852 5.4922-13.258 0 0 0.10938-4.2734 0.32031-5.2812 1.3789-6.5469-0.83203-13.328-5.8047-17.805-4.9727-4.4727-11.953-5.9609-18.316-3.8984-6.3633 2.0586-11.148 7.3555-12.555 13.895-0.61328 4.3398-0.99609 8.7109-1.1445 13.09 0 4.9727 1.9766 9.7422 5.4922 13.258 3.5156 3.5195 8.2852 5.4922 13.258 5.4922z"/>
  <path d="m352.16 423.54c2.9961 1.7422 5.8242 3.7617 8.4492 6.0273 3.2109-3.4414 5.0039-7.9727 5.0117-12.68v-9.2383c0-6.6992-3.5742-12.891-9.375-16.238-5.8008-3.3516-12.949-3.3516-18.75 0-5.8008 3.3477-9.375 9.5391-9.375 16.238v5.1562-0.003907c5.5859 1.1836 10.961 3.2188 15.93 6.0352z"/>
  <path d="m365.62 832.25v-9.2266c0-6.6992-3.5742-12.891-9.375-16.238-5.8008-3.3516-12.949-3.3516-18.75 0-5.8008 3.3477-9.375 9.5391-9.375 16.238v9.2266c0 6.6992 3.5742 12.891 9.375 16.238 5.8008 3.3477 12.949 3.3477 18.75 0 5.8008-3.3477 9.375-9.5391 9.375-16.238z"/>
  <path d="m369.65 870.07c-1.207 0.70703-2.5 1.2578-3.8477 1.6289-4.832 1.1875-8.9883 4.2461-11.562 8.5-2.5742 4.2578-3.3516 9.3594-2.1641 14.188 1.2461 4.793 4.3164 8.9102 8.5547 11.477 4.2383 2.5625 9.3086 3.3711 14.133 2.2461 4.6172-1.168 9.0586-2.957 13.199-5.3164 5.8438-3.2695 9.5-9.4102 9.5898-16.109 0.089844-6.6953-3.3984-12.934-9.1562-16.359-5.7539-3.4297-12.902-3.5234-18.746-0.25391z"/>
  <path d="m441.24 828.52-7.9844 4.6328c-4.3125 2.4922-7.4531 6.5938-8.7383 11.406-1.2812 4.8125-0.59375 9.9375 1.9062 14.246 2.5 4.3047 6.6133 7.4414 11.426 8.7109 4.8164 1.2695 9.9375 0.57422 14.242-1.9375l7.9844-4.6328-0.003907 0.003906c4.3125-2.4922 7.457-6.5977 8.7383-11.41s0.59766-9.9375-1.9023-14.242c-2.5-4.3086-6.6133-7.4414-11.43-8.7148-4.8125-1.2695-9.9375-0.57422-14.238 1.9375z"/>
  <path d="m470.59 388.52 7.9844 4.6328c4.3008 2.5039 9.4219 3.1953 14.234 1.918 4.8125-1.2734 8.918-4.4062 11.418-8.7148 2.4961-4.3047 3.1836-9.4258 1.9023-14.234-1.2812-4.8125-4.4219-8.9141-8.7305-11.406l-7.9844-4.6328c-5.793-3.3398-12.926-3.3398-18.719-0.003907-5.7969 3.3359-9.375 9.5039-9.3984 16.188-0.019531 6.6875 3.5195 12.879 9.293 16.254z"/>
  <path d="m398.75 346.81 7.9844 4.6328h-0.003907c5.793 3.3633 12.941 3.3789 18.75 0.046876 5.8125-3.3359 9.3984-9.5156 9.418-16.215 0.015625-6.6992-3.543-12.898-9.3359-16.262l-7.9844-4.6328h0.003906c-4.3008-2.5117-9.4258-3.207-14.242-1.9336-4.8125 1.2695-8.9258 4.4023-11.426 8.7109-2.5 4.3047-3.1875 9.4297-1.9062 14.242 1.2852 4.8125 4.4297 8.918 8.7422 11.41z"/>
  <path d="m576.05 428.06c2.4961-4.3008 3.1797-9.418 1.9023-14.227-1.2773-4.8047-4.4102-8.9102-8.7109-11.406l-7.9844-4.6328h0.003906c-5.793-3.3398-12.926-3.3398-18.723-0.003906-5.793 3.3359-9.3711 9.5039-9.3945 16.191-0.019532 6.6836 3.5195 12.875 9.293 16.25l7.9844 4.6328c4.3086 2.4492 9.4102 3.1094 14.203 1.8359 4.793-1.2734 8.8945-4.375 11.426-8.6406z"/>
  <path d="m784.78 527.56-7.9844-4.6328c-5.793-3.3594-12.941-3.375-18.75-0.039063s-9.3984 9.5195-9.4141 16.219c-0.011718 6.6992 3.5469 12.898 9.3398 16.258l7.9844 4.6328c5.793 3.3398 12.926 3.3438 18.719 0.007812 5.7969-3.3359 9.375-9.5078 9.3984-16.191 0.019531-6.6875-3.5195-12.879-9.293-16.254z"/>
  <path d="m513.09 786.8-7.9844 4.6328c-4.3008 2.4961-7.4336 6.5977-8.707 11.402-1.2773 4.8047-0.59375 9.9219 1.9023 14.223 2.5312 4.2617 6.6328 7.3633 11.422 8.6367 4.793 1.2734 9.8906 0.61719 14.207-1.8242l7.9844-4.6328c4.3086-2.4922 7.4492-6.5977 8.7305-11.406 1.2812-4.8125 0.59375-9.9336-1.9023-14.238-2.5-4.3047-6.6055-7.4414-11.418-8.7148-4.8125-1.2734-9.9336-0.58203-14.234 1.9219z"/>
  <path d="m712.93 485.85-7.9844-4.6328h0.003906c-5.7969-3.3633-12.945-3.3789-18.754-0.039062-5.8086 3.3359-9.3945 9.5156-9.4102 16.215-0.015624 6.6992 3.543 12.898 9.3398 16.262l7.9844 4.6328c5.793 3.3398 12.922 3.3398 18.719 0.003907 5.793-3.3359 9.375-9.5039 9.3945-16.191 0.023438-6.6836-3.5195-12.875-9.293-16.25z"/>
  <path d="m728.62 661.67-7.9844 4.6328h0.003906c-4.3008 2.5-7.4336 6.6016-8.7109 11.41-1.2773 4.8047-0.59375 9.9219 1.9023 14.227 2.5391 4.2539 6.6406 7.3516 11.43 8.6211 4.7891 1.2734 9.8867 0.61719 14.199-1.8203l7.9844-4.6328c5.7656-3.375 9.3047-9.5625 9.2812-16.246-0.023437-6.6836-3.6016-12.848-9.3906-16.184-5.793-3.3359-12.922-3.3398-18.715-0.007812z"/>
  <path d="m800.46 619.97-7.9844 4.6328c-4.3203 2.4844-7.4688 6.5898-8.7578 11.406-1.2852 4.8164-0.60156 9.9453 1.9023 14.254 2.5039 4.3125 6.6172 7.4492 11.438 8.7188s9.9492 0.56641 14.25-1.9531l7.9844-4.6328c4.3125-2.4922 7.457-6.5938 8.7383-11.406s0.59766-9.9375-1.9023-14.246c-2.5039-4.3047-6.6133-7.4414-11.43-8.7109s-9.9375-0.57422-14.238 1.9375z"/>
  <path d="m584.92 745.1-7.9805 4.6328c-4.3047 2.4961-7.4414 6.6016-8.7188 11.41-1.2734 4.8086-0.58594 9.9297 1.9141 14.23s6.6055 7.4336 11.418 8.707c4.8125 1.2695 9.9297 0.57812 14.23-1.9297l7.9805-4.6328h-0.003906c4.3125-2.4922 7.457-6.5977 8.7383-11.41s0.59375-9.9375-1.9062-14.242c-2.5039-4.3086-6.6172-7.4414-11.434-8.7109s-9.9375-0.56641-14.238 1.9453z"/>
  <path d="m667.62 740.45 7.9844-4.6328v0.003906c5.7734-3.375 9.3125-9.5664 9.2891-16.254-0.019531-6.6836-3.5977-12.855-9.3945-16.191-5.793-3.3359-12.926-3.332-18.719 0.007812l-7.9844 4.6328c-4.3008 2.4961-7.4336 6.6016-8.7109 11.406-1.2773 4.8086-0.58984 9.9258 1.9023 14.227 2.5352 4.2617 6.6367 7.3594 11.43 8.6328 4.7891 1.2695 9.8906 0.61328 14.203-1.832z"/>
  <path d="m647.89 469.78c2.4961-4.3008 3.1836-9.418 1.9102-14.223-1.2773-4.8047-4.4062-8.9102-8.707-11.406l-7.9844-4.6406c-5.7891-3.3125-12.902-3.3008-18.68 0.03125-5.7812 3.332-9.3516 9.4844-9.3828 16.156-0.03125 6.668 3.4844 12.855 9.2305 16.238l7.9844 4.6406v0.003906c4.3125 2.4492 9.4102 3.1094 14.203 1.8398 4.7969-1.2734 8.8984-4.375 11.426-8.6406z"/>
  <path d="m829.57 598.94 7.9844 4.6328c5.793 3.3633 12.941 3.3789 18.75 0.042969 5.8086-3.3398 9.3984-9.5195 9.4102-16.219 0.015625-6.6992-3.543-12.898-9.3398-16.262l-7.9844-4.6328c-4.3008-2.5039-9.4219-3.1953-14.234-1.9219-4.8086 1.2773-8.918 4.4102-11.418 8.7148-2.4961 4.3047-3.1797 9.4297-1.8984 14.238s4.4219 8.9141 8.7305 11.406z"/>
  <path d="m18.75 518.71c4.9727 0 9.7422-1.9766 13.258-5.4922 3.5156-3.5156 5.4922-8.2852 5.4922-13.258v-9.2383c0-6.6992-3.5742-12.887-9.375-16.238-5.8008-3.3477-12.949-3.3477-18.75 0-5.8008 3.3516-9.375 9.5391-9.375 16.238v9.2383c0 4.9727 1.9766 9.7422 5.4922 13.258 3.5156 3.5156 8.2852 5.4922 13.258 5.4922z"/>
  <path d="m18.75 352.56c4.9727 0 9.7422-1.9727 13.258-5.4922 3.5156-3.5156 5.4922-8.2852 5.4922-13.258 0 0 0.10938-4.2734 0.32031-5.2812 1.375-6.543-0.83984-13.32-5.8125-17.793-4.9688-4.4688-11.945-5.9531-18.309-3.8984-6.3594 2.0586-11.145 7.3477-12.555 13.883-0.61328 4.3398-0.99609 8.7109-1.1445 13.09 0 4.9727 1.9766 9.7422 5.4922 13.258 3.5156 3.5195 8.2852 5.4922 13.258 5.4922z"/>
  <path d="m18.75 601.79c4.9727 0 9.7422-1.9766 13.258-5.4922 3.5156-3.5156 5.4922-8.2852 5.4922-13.258v-9.2383c0-6.6992-3.5742-12.887-9.375-16.238-5.8008-3.3477-12.949-3.3477-18.75 0-5.8008 3.3516-9.375 9.5391-9.375 16.238v9.2383c0 4.9727 1.9766 9.7422 5.4922 13.258 3.5156 3.5156 8.2852 5.4922 13.258 5.4922z"/>
  <path d="m18.75 435.64c4.9727 0 9.7422-1.9766 13.258-5.4922 3.5156-3.5156 5.4922-8.2852 5.4922-13.258v-9.2383c0-6.6992-3.5742-12.891-9.375-16.238-5.8008-3.3516-12.949-3.3516-18.75 0-5.8008 3.3477-9.375 9.5391-9.375 16.238v9.2383c0 4.9727 1.9766 9.7422 5.4922 13.258 3.5156 3.5156 8.2852 5.4922 13.258 5.4922z"/>
  <path d="m18.75 684.85c4.9727 0 9.7422-1.9766 13.258-5.4922 3.5156-3.5156 5.4922-8.2852 5.4922-13.258v-9.2305c0-6.6953-3.5742-12.887-9.375-16.238-5.8008-3.3477-12.949-3.3477-18.75 0-5.8008 3.3516-9.375 9.543-9.375 16.238v9.2305c0 4.9727 1.9766 9.7422 5.4922 13.258 3.5156 3.5156 8.2852 5.4922 13.258 5.4922z"/>
  <path d="m494.64 572.32c-2.4961 4.3008-3.1797 9.418-1.9023 14.227 1.2773 4.8047 4.4102 8.9102 8.7109 11.406l7.9844 4.6328c5.793 3.3398 12.922 3.3398 18.719 0.003907 5.793-3.3359 9.375-9.5039 9.3945-16.191 0.023437-6.6875-3.5195-12.879-9.293-16.25l-7.9844-4.6328c-4.3008-2.4922-9.4141-3.1797-14.223-1.9023-4.8047 1.2734-8.9062 4.4062-11.406 8.707z"/>
  <path d="m351.2 488.02c-2.4961 4.3008-3.1797 9.418-1.9023 14.227 1.2773 4.8047 4.4102 8.9102 8.7109 11.406l7.9844 4.6328c5.793 3.3398 12.922 3.3398 18.719 0.003907 5.793-3.3359 9.375-9.5039 9.3945-16.191 0.023438-6.6836-3.5195-12.875-9.293-16.25l-7.9844-4.6328h0.003906c-4.3047-2.4922-9.418-3.1758-14.223-1.8984-4.8047 1.2734-8.9102 4.4062-11.41 8.7031z"/>
  <path d="m423.04 529.73c-2.4961 4.3008-3.1797 9.418-1.9023 14.227 1.2734 4.8047 4.4062 8.9102 8.707 11.406l7.9844 4.6328c5.793 3.3398 12.926 3.3398 18.719 0.003906 5.7969-3.3359 9.375-9.5039 9.3984-16.191 0.019531-6.6836-3.5195-12.875-9.293-16.25l-7.9844-4.6328c-4.3008-2.4922-9.418-3.1797-14.223-1.9023-4.8047 1.2734-8.9102 4.4062-11.406 8.707z"/>
  <path d="m256.8 745.1-7.9805 4.6328c-4.3008 2.5-7.4297 6.6055-8.7031 11.41-1.2734 4.8086-0.58594 9.9258 1.9141 14.227 2.5391 4.2578 6.6406 7.3516 11.434 8.6211 4.7891 1.2656 9.8867 0.60547 14.199-1.8398l7.9805-4.6328h-0.003906c4.3125-2.4922 7.457-6.5977 8.7383-11.41s0.59375-9.9375-1.9062-14.242c-2.5039-4.3086-6.6172-7.4414-11.434-8.7109-4.8164-1.2656-9.9375-0.56641-14.238 1.9453z"/>
  <path d="m339.49 740.45 7.9844-4.6328v0.003906c5.7734-3.375 9.3125-9.5664 9.2891-16.254-0.019531-6.6836-3.5977-12.855-9.3945-16.191-5.793-3.3359-12.926-3.332-18.719 0.007812l-7.9844 4.6328c-4.3008 2.4961-7.4336 6.6016-8.7109 11.406-1.2773 4.8086-0.58984 9.9258 1.9023 14.227 2.5352 4.2578 6.6406 7.3555 11.43 8.6289 4.7891 1.2695 9.8906 0.61328 14.203-1.8281z"/>
  <path d="m319.77 469.78c2.4961-4.3008 3.1836-9.418 1.9102-14.223-1.2773-4.8047-4.4062-8.9102-8.707-11.406l-7.9844-4.6406c-5.7891-3.3125-12.902-3.3008-18.68 0.03125-5.7812 3.332-9.3516 9.4844-9.3828 16.156-0.03125 6.668 3.4844 12.855 9.2305 16.238l7.9844 4.6406v0.003906c4.3125 2.4492 9.4102 3.1094 14.207 1.8398 4.793-1.2734 8.8945-4.375 11.422-8.6406z"/>
  <path d="m247.93 428.06c2.4961-4.3008 3.1797-9.418 1.9023-14.227-1.2773-4.8047-4.4102-8.9102-8.7109-11.406l-7.9844-4.6328h0.003906c-5.793-3.3398-12.926-3.3398-18.723-0.003906-5.793 3.3359-9.3711 9.5039-9.3945 16.191-0.019532 6.6836 3.5195 12.875 9.293 16.25l7.9844 4.6328c4.3086 2.4492 9.4102 3.1094 14.203 1.8359 4.793-1.2695 8.8984-4.375 11.426-8.6406z"/>
  <path d="m497.97 626.76c-2.4961-4.3008-6.6016-7.4336-11.406-8.707-4.8086-1.2734-9.9258-0.58594-14.223 1.9141l-7.9844 4.6328c-4.3203 2.4844-7.4688 6.5898-8.7578 11.406-1.2852 4.8164-0.60156 9.9453 1.9023 14.254 2.5039 4.3125 6.6172 7.4492 11.438 8.7188s9.9492 0.56641 14.25-1.9531l7.9844-4.6328c4.3008-2.4961 7.4297-6.6016 8.707-11.41 1.2734-4.8047 0.58594-9.9219-1.9102-14.223z"/>
  <path d="m184.96 786.8-7.9844 4.6328c-4.3008 2.4961-7.4336 6.5977-8.707 11.402-1.2773 4.8047-0.59375 9.9219 1.9023 14.223 2.5352 4.2578 6.6367 7.3555 11.426 8.6289 4.7891 1.2734 9.8867 0.62109 14.203-1.8164l7.9844-4.6328c4.3086-2.4922 7.4492-6.5977 8.7305-11.406 1.2812-4.8125 0.59375-9.9336-1.9023-14.238-2.5-4.3047-6.6055-7.4414-11.418-8.7148-4.8125-1.2734-9.9336-0.58203-14.234 1.9219z"/>
  <path d="m426.13 668.48c-2.4961-4.3008-6.6016-7.4336-11.406-8.7109-4.8047-1.2773-9.9219-0.59375-14.227 1.8984l-7.9844 4.6328h0.003906c-4.3008 2.5-7.4336 6.6016-8.7109 11.41-1.2773 4.8047-0.59375 9.9219 1.9023 14.227 2.5352 4.2617 6.6367 7.3594 11.426 8.6289 4.793 1.2734 9.8906 0.61719 14.203-1.8281l7.9844-4.6328c4.3008-2.4961 7.4336-6.5977 8.7109-11.402 1.2734-4.8047 0.58984-9.9219-1.9023-14.223z"/>
  <path d="m176.08 386.35c2.4961-4.3008 3.1797-9.418 1.9062-14.227-1.2773-4.8047-4.4102-8.9102-8.7109-11.406l-7.9844-4.6328c-5.793-3.3398-12.926-3.3398-18.719-0.003907-5.7969 3.3359-9.375 9.5039-9.3945 16.188-0.023438 6.6875 3.5156 12.879 9.2891 16.254l7.9844 4.6328v-0.003906c4.3125 2.4531 9.4141 3.1133 14.207 1.8398 4.793-1.2695 8.8945-4.375 11.422-8.6406z"/>
  <path d="m41.523 870.07c-1.207 0.70703-2.5 1.2578-3.8477 1.6289-4.832 1.1875-8.9883 4.2461-11.562 8.5039-2.5742 4.2539-3.3516 9.3555-2.1641 14.184 1.25 4.793 4.3203 8.9102 8.5547 11.473 4.2383 2.5625 9.3086 3.3711 14.133 2.25 4.6172-1.168 9.0586-2.957 13.199-5.3164 5.8438-3.2695 9.5-9.4102 9.5898-16.109 0.089844-6.6953-3.3984-12.934-9.1562-16.359-5.7539-3.4297-12.902-3.5234-18.746-0.25391z"/>
  <path d="m18.75 767.93c4.9727 0 9.7422-1.9766 13.258-5.4922 3.5156-3.5156 5.4922-8.2852 5.4922-13.258v-9.2305c0-6.6953-3.5742-12.887-9.375-16.238-5.8008-3.3477-12.949-3.3477-18.75 0-5.8008 3.3516-9.375 9.543-9.375 16.238v9.2305c0 4.9727 1.9766 9.7422 5.4922 13.258 3.5156 3.5156 8.2852 5.4922 13.258 5.4922z"/>
  <path d="m37.5 832.25v-9.2266c0-6.6992-3.5742-12.891-9.375-16.238-5.8008-3.3516-12.949-3.3516-18.75 0-5.8008 3.3477-9.375 9.5391-9.375 16.238v9.2266c0 6.6992 3.5742 12.891 9.375 16.238 5.8008 3.3477 12.949 3.3477 18.75 0 5.8008-3.3477 9.375-9.5391 9.375-16.238z"/>
  <path d="m104.23 344.65c2.4961-4.3008 3.1836-9.4141 1.9062-14.223-1.2734-4.8086-4.4062-8.9102-8.7031-11.41l-7.9844-4.6328c-4.3008-2.5117-9.4258-3.207-14.242-1.9375-4.8125 1.2734-8.9258 4.4062-11.426 8.7148-2.5 4.3047-3.1875 9.4297-1.9023 14.242 1.2812 4.8125 4.4258 8.918 8.7383 11.41l7.9844 4.6328h-0.003907c4.3125 2.4531 9.4141 3.1172 14.207 1.8477 4.793-1.2734 8.8984-4.375 11.426-8.6445z"/>
  <path d="m113.11 828.52-7.9844 4.6328c-4.2969 2.4961-7.4297 6.6016-8.707 11.41-1.2734 4.8047-0.58594 9.9219 1.9102 14.223 2.5352 4.2617 6.6367 7.3594 11.43 8.6289 4.793 1.2695 9.8906 0.60938 14.203-1.8359l7.9844-4.6328-0.003907 0.003906c4.3125-2.4922 7.457-6.5977 8.7383-11.41s0.59766-9.9375-1.9023-14.242c-2.5-4.3086-6.6133-7.4414-11.43-8.7148-4.8125-1.2695-9.9375-0.57422-14.238 1.9375z"/>
  <path d="m1177.2 564.87-460.18-267.16h-0.003906c-7.293-4.4727-15.645-6.918-24.199-7.0859-21.512 0-36.535 17.039-36.535 41.438v77.523l3.6953 2.1445c11.715 6.8516 20.527 17.75 24.773 30.641 3.5664-0.74609 7.1992-1.1445 10.844-1.1836 9.9062 0.007812 19.633 2.625 28.203 7.5938l7.9922 4.6367c11.77 6.8359 20.641 17.727 24.965 30.629 3.5156-0.72656 7.0938-1.1133 10.688-1.1523 9.9102 0.007813 19.645 2.6289 28.215 7.6055l7.9805 4.6328c12.297 7.1445 21.414 18.703 25.5 32.328 3.2656-0.62891 6.5781-0.96094 9.9023-0.99609 9.9102 0.003906 19.645 2.6289 28.215 7.6016l7.9805 4.6328c12.449 7.1641 21.676 18.832 25.77 32.602s2.7461 28.582-3.7695 41.383c-6.5156 12.805-17.695 22.613-31.234 27.41-1.2891 18.605-11.719 35.359-27.84 44.73l-7.9961 4.6406c-8.5391 4.9453-18.23 7.5508-28.094 7.543h-0.003906c-3.625-0.039062-7.2344-0.42578-10.781-1.1602-4.3125 12.93-13.191 23.84-24.977 30.688l-7.9922 4.6367c-11.711 6.8906-25.574 9.1641-38.875 6.375-4.3086 12.934-13.191 23.852-24.98 30.699l-3.2891 1.9062c0.007813 0.37891 0.023437 0.76953 0.03125 1.1484l-0.4375-0.91016-4.2969 2.4922c-8.125 4.6836-17.305 7.2461-26.684 7.4531-0.89844 0.98828-2.168 1.5586-3.5039 1.5703v86.031c0 24.398 15.023 41.438 36.535 41.438 8.5547-0.17188 16.906-2.6211 24.199-7.0938l460.18-267.15h0.003907c9.1094-4.0469 16.293-11.477 20.031-20.719 3.7344-9.2422 3.7344-19.578 0-28.82-3.7383-9.2422-10.922-16.672-20.031-20.719z"/>
 </g>
</svg>
