<?xml version="1.0" encoding="UTF-8"?>
<svg width="1200pt" height="1200pt" version="1.1" viewBox="0 0 1200 1200" xmlns="http://www.w3.org/2000/svg">
 <path d="m946.96 637.03 2.707 6.0391c2.3086 4.0391 4.7734 6.0547 7.3867 6.0547 1.1484 0 3.4531-6.8398 6.9453-20.508 4.1211-15.691 7.1484-25.535 9.0938-29.48 1.9336-3.7344 5.5742-8.707 10.879-14.922 5.9727-3.6016 12.453-7.4805 19.387-11.668 15.254-4.4141 27.801-7.0938 37.668-8.0664 12.348-1.1992 20.266-1.6406 23.773-1.3594 21.387 2.7734 40.812 1.1602 58.309-4.8125 26.453-8.8125 44.172-26.988 53.133-54.48 1.3477-3.4414 1.1602-7.0391-0.54688-10.762-1.6406-3.7461-4.1719-6.4648-7.5195-8.1875l-52.48-28.812c-2.9219-22.199-13.238-38.641-31.055-49.332-17.719-10.613-39.238-13.945-64.586-9.9883-9.2656 1.1992-18.055 3.3984-26.348 6.6133-5.4648 0.66797-10.398 1.0117-14.801 1.0117-30.359 0-48.707 1.0547-55.055 3.1328-3.3594 1.1211-5.4648 2.8398-6.2812 5.1602-0.46484 1.3477-0.67969 4.293-0.67969 8.8516 0 0.60156 0.74609 2.3203 2.2266 5.1602-26.066 6.8008-39.691 13.078-40.801 18.84-1.1328 5.8281 3.3203 12.812 13.332 20.973 3.2148 2.5352 5.9727 4.7461 8.3086 6.6133-7.4141 2.6914-12.691 4.4805-15.812 5.3867-15.105 4.4805-37.922 7.3594-68.398 8.6406l-44.414 0.44141c-16.148 2.4805-34.105 6.1719-53.934 11.105-22.426 5.7461-39.719 10.094-51.906 13-21.309 5.0781-41.867 9.1211-61.668 12.121-13.613 2.1602-27.852 3.9609-42.734 5.3867-18.84-0.45313-50.922-2.6133-96.32-6.5078-42.906-3.668-73.961-6.668-93.172-8.9727-17.039-2.0938-34.828-5.5352-53.359-10.32-15.84-4.1719-33.148-9.6016-51.922-16.254-14.492-5.0938-29.906-9.7188-46.199-13.906-42.387-10.988-82.895-11.879-121.54-2.6914s-63.906 26.16-75.801 50.895h1.5742c22.641-11.199 42.492-10.559 59.535 1.9219 4.2656 2.0117 10.68 4.8945 19.293 8.625 10.68 4.7852 20.559 8.3086 29.602 10.547 12.785 3.1328 26.586 4.707 41.387 4.707 2.4531 0 7.0938-0.48047 13.895-1.4531 4.5742-0.60156 7.625-1.0547 9.1992-1.3477 0.14844-0.16016 0.25391-0.26562 0.33203-0.33203h0.78516c-0.22656 0.066406-0.60156 0.1875-1.1211 0.33203-2.5469 1.9453-7.5469 5.0391-15.012 9.3086-8.8281 5.0781-13.586 7.8398-14.238 8.293 0.29297 0 0.51953 0.16016 0.66797 0.45312l0.12109 0.34766c6.4922 0.89453 12.988 1.7188 19.492 2.4648 12.934 1.4922 21.121 2.2383 24.559 2.2383 5.2266 0 11.281-0.53516 18.16-1.5742 5-0.83984 9.668-1.7617 14.012-2.8125 0.066406-0.14844 0.16016-0.26562 0.22656-0.32031h0.78516c-0.375 0.066407-0.70703 0.1875-1.0117 0.32031-3.293 3.7461-6.1328 6.9219-8.5195 9.5352-4.4805 4.8516-7.5078 7.3203-9.0781 7.3984h11.199c10.691 0 20.625-1.2812 29.812-3.8125 10.027-2.7734 20.348-7.2539 30.961-13.453 0.29297-0.45312 0.44141-0.71875 0.44141-0.80078h0.80078c-0.38672 0.29297-0.80078 0.55859-1.2383 0.80078-0.74609 1.1875-2.4648 3.9883-5.1484 8.3984-3.5352 5.7461-5.2812 9.0781-5.2812 9.9883v1.1211c3.9609-1.9453 10.012-4.2266 18.16-6.8398 8.1328-2.6914 13.266-4.0391 15.348-4.0391 21.238 0 32.668 6.5078 34.32 19.508l0.89453 0.22656c-1.5742 7.8398-2.7852 13.945-3.6914 18.281-3.293 17.199-4.9336 30.785-4.9336 40.801 0 7.4922 0.375 17.508 1.1211 30.066 0.74609 12.559 1.1211 20.227 1.1211 22.988 0 5.1602-1.0781 10.668-3.2539 16.492-0.078125 0.21484-0.1875 0.48047-0.33203 0.77344-7.2539-3.8125-14.508-8-21.746-12.559-18.988-10.309-32.293-9.8516-39.922 1.3477-4.0391 6.0664-6.0664 14.148-6.0664 24.227 0.45312 6.7344 1.0547 13.453 1.8008 20.188-2.6914-0.29297-4.7461-0.45312-6.1719-0.45312-8.1484 0-14.719 1.3477-19.719 4.0391-4.4805 2.3984-8.2266 6.2148-11.227 11.453-2.2266 4.0273-4.6016 10.121-7.0547 18.254-1.4141 4.7188-3.8125 12.707-7.1875 24-0.58594 1.7188-2.9453 6.8281-7.0547 15.254-7.8398 16-12.105 24.719-12.773 26.238-11.801 24.68-17.719 39.586-17.719 44.734 0 7.6914 1.3086 13.828 3.9219 18.398 3 5.1484 7.4414 7.7188 13.332 7.7188 12.188 0 23.105-10.652 32.746-31.945 3.2148-7.1055 6.3477-15.52 9.4258-25.238 2.8281-9.7188 4.625-15.879 5.375-18.52 3.4414-11.359 6.9883-20.359 10.652-27 3.7344-6.8789 8-12.121 12.773-15.707 2.3867-1.7188 5.0391-3.1719 7.9609-4.3594 0.53516 2.8281 1.0938 5.625 1.6914 8.3984 10.762 49.48 24.961 74.227 42.613 74.227 7.2383 0 11.762-3.2656 13.559-9.7461 0.67969-2.1602 1.0117-4.7734 1.0117-7.8672-0.066407-3.1328-0.10547-5.1875-0.10547-6.1484 0-5.707-2.8398-18.465-8.5195-38.359-2.9883-10.398-5.1992-18.426-6.6133-24.094 4.6406 0.42578 10.547 1.0664 17.719 1.8945 16.293 1.8008 28.945 2.6914 38 2.6914 29.746 0 53.375-5.1602 70.867-15.48 12.707-7.4648 23.465-18.84 32.281-34.094 1.1328-1.8672 4.3477-7.9219 9.6406-18.16 3.668-6.9336 6.8789-12.215 9.6523-15.801 3.8008-5.0938 8.0391-8.8672 12.668-11.332 5.3867-2.8516 11.734-4.2656 19.066-4.2656 15.465 0 34.039 2.8789 55.719 8.625 5.8281 1.5859 12.586 3.5586 20.281 5.9609 5.8281 1.8008 8.9727 2.6914 9.4141 2.6914 0.69141 0 1.4648-0.17188 2.375-0.45312 0.8125-0.23828 1.4414-0.33203 1.8945-0.33203v0.80078c-5.293 3.5586-8.8945 5.9219-10.762 7.0391-4.4922 2.6914-8.6523 4.7461-12.547 6.1602 2.332 0.375 11.375 1.8398 27.121 4.3867 17.133 2.3203 32.375 3.4648 45.773 3.4648 11.414 0 20.84-1.1055 28.238-3.3594 2.8398-0.87891 6.0664-2.1328 9.6523-3.6914 2.1484-0.97266 5.5586-2.5195 10.199-4.7188-4.1211 5.375-8.4531 10.867-13 16.48-5.4648 6.5742-9.1992 10.719-11.227 12.465h2.6914c2.3867 0 7.7461-0.80078 16.039-2.375 9.4648-1.6406 18.906-3.6523 28.238-6.0547 23.988-6.1211 39.465-12.293 46.414-18.492 0.67969-0.67969 1.2656-1.3594 1.8008-2.0273v3.9219c-0.53516 2.2539-2.1719 7.0273-4.9336 14.359-2.4648 6.375-3.6914 10.414-3.6914 12.227 12.348-5.4414 22.121-10.281 29.359-14.465 9.4414-5.375 16.68-10.613 21.773-15.707l2.1211 2c7.707 8.9727 15.281 17.84 22.746 26.602l-0.30859-0.33203c5.1484 13.453 4.4414 27.348-2.1484 41.691 26.691-6.6406 52.785-3.2812 78.266 10.094 15.48 8.1484 38.895 22.254 70.215 42.293 31.148 20.012 53.652 33.652 67.492 40.922 23.398 12.16 42.188 18.254 56.398 18.254 8.7188 0 16.293-2.0547 22.641-6.1484 6.8008-4.4922 10.199-10.266 10.199-17.281 0-4.1211-2.7344-7.4805-8.1719-10.078-4.1875-2.0273-10.547-3.7734-19.066-5.2812-9.9453-1.5078-17.078-2.625-21.414-3.3867-7.625-1.3477-12.773-2.9062-15.48-4.707-6.8789-4.5742-17.027-11.934-30.492-22.078-14.121-10.773-23.215-17.668-27.238-20.773-18.398-12.012-36.105-24.746-53.148-38.215-33.707-26.602-50.559-46.148-50.559-58.625 0-3.7188 0.25391-6.0547 0.78516-6.9453 0.60156-1.0391 2.2656-1.5742 5.0391-1.5742 4.1875 0 9.5742 0.39844 16.16 1.2539 7.7734 0.96094 13.188 2.1211 16.254 3.4648 4.8672 2.0117 8.4141 5.293 10.652 9.8672 0 0.066406 0.89453 2.1992 2.6914 6.3867 1.1875 2.7617 2.4805 5.1484 3.8125 7.0664 3.0664 4.6406 10.641 12 22.746 22.105 13.012 10.746 21.414 16.121 25.254 16.121 4.9062 0 8.707-2.0547 11.32-6.1602 2.0781-3.293 3.1328-7.0664 3.1328-11.348 0-7.1484-4.9727-16.691-14.906-28.574-5.6016-6.375-9.7461-11.105-12.465-14.238-4.6406-5.4648-7.9883-10.055-10.078-13.801-5.5195-9.9219-9.293-16.691-11.332-20.281-3.1992-5.7617-5.9883-9.9062-8.293-12.453-2.7734-2.9219-6.1484-4.9883-10.094-6.1602-3.8125-1.1328-9.2656-1.6914-16.375-1.6914-3.1211 0-7.8125 0.42578-14.012 1.2539-6.3086 0.74609-10.84 1.1055-13.68 1.1055-12.414 0-20.895-1.5742-25.465-4.7188-1.4648-1.0391-2.7344-2.4414-3.8008-4.1484 1.3594-1.1992 2.7734-2.5078 4.2539-3.9336 6.332-5.8008 12.945-12.453 19.879-19.934zm118.4-175.36v-0.10547c1-3.9727 3.1992-6.9453 6.668-8.9727 3.3594-2.0117 6.9883-2.5078 10.84-1.4531 3.8008 1.1211 6.6797 3.4805 8.6016 7.0664 0.93359 1.7188 1.5469 3.4805 1.8281 5.2812v0.22656c0.17188 1.7852-0.011719 3.625-0.51953 5.4922v0.10547c-1 4.0273-3.2148 7.0664-6.6523 9.0781l0.10547-0.10547c-3.375 2.0117-6.9453 2.5469-10.762 1.5742-3.9336-1.1211-6.8672-3.4414-8.6914-6.9453-1.9492-3.4688-2.4453-7.2188-1.418-11.242z" fill="#ff814a" fill-rule="evenodd"/>
</svg>
