<?xml version="1.0" encoding="UTF-8"?>
<svg width="1200pt" height="1200pt" version="1.1" viewBox="0 0 1200 1200" xmlns="http://www.w3.org/2000/svg">
 <g fill="#ff814a">
  <path d="m480 625.44c-0.24219-19.379 5.3516-38.379 16.055-54.539 10.699-16.156 26.012-28.723 43.945-36.062 6.8125-2.4023 12.746-6.8008 17.027-12.625 4.2812-5.8203 6.7109-12.793 6.9727-20.016v-3.4805c0.10938-11.25-5.3242-21.836-14.527-28.305-9.2031-6.4727-21.004-8.0039-31.551-4.0938-35.332 13.129-65.219 37.758-84.863 69.926-19.641 32.168-27.895 70.004-23.438 107.43 4.4609 37.426 21.375 72.266 48.027 98.914 26.652 26.652 61.488 43.566 98.914 48.027 37.426 4.4609 75.266-3.7969 107.43-23.438 32.168-19.641 56.793-49.531 69.926-84.859 3.9141-10.473 2.3867-22.203-4.082-31.32-6.4023-9.4727-17.125-15.109-28.559-15h-3.4805c-7.2227 0.26172-14.195 2.6914-20.016 6.9727-5.8242 4.2812-10.223 10.215-12.625 17.027-11.07 27.746-34.426 48.758-63.188 56.844-28.758 8.0859-59.641 2.3203-83.547-15.594s-38.109-45.938-38.426-75.809z"/>
  <path d="m553.56 971.28c87.195 5.1719 173.17-22.441 241.05-77.418 67.875-54.973 112.74-133.34 125.79-219.7 1.3984-9.4453-1.457-19.023-7.7969-26.16-6.6367-7.6523-16.273-12.031-26.402-12h-3.4805c-8.25 0.007812-16.223 3.0039-22.441 8.4297-6.2188 5.4219-10.27 12.914-11.398 21.09-10.293 67.617-45.328 129-98.309 172.25-52.98 43.254-120.13 65.297-188.44 61.852-68.309-3.4414-132.9-32.125-181.27-80.488s-77.047-112.96-80.488-181.27c-3.4453-68.309 18.598-135.46 61.852-188.44 43.254-52.98 104.64-88.016 172.25-98.309 8.1758-1.1289 15.668-5.1797 21.09-11.398 5.4258-6.2188 8.4219-14.191 8.4297-22.441v-3.4805c-0.003906-10.086-4.3828-19.672-12-26.281-5.8984-5.2148-13.488-8.1133-21.359-8.1602h-4.6797c-85.145 12.355-162.7 55.816-217.68 121.99-54.988 66.176-83.508 150.37-80.062 236.34s38.613 167.61 98.719 229.18c60.102 61.559 140.88 98.676 226.74 104.18z"/>
  <path d="m756 528h153.96c9.2148 0.23047 18.195-2.9453 25.215-8.9258s11.586-14.336 12.824-23.473c1.0195-10.156-2.3164-20.266-9.1836-27.816-6.8633-7.5547-16.609-11.836-26.816-11.785h-117.12l166.56-166.56c8.5625-9.1914 11.715-22.176 8.3203-34.27-3.3906-12.094-12.84-21.543-24.934-24.934-12.094-3.3945-25.078-0.24219-34.27 8.3203l-166.56 166.56v-117.12c-0.054688-10.176-4.4141-19.855-12-26.641-6.5703-5.9727-15.121-9.3047-24-9.3594h-3.6016c-9.1367 1.2383-17.492 5.8047-23.473 12.824s-9.1562 16-8.9258 25.215v153.96c0 22.277 8.8516 43.645 24.602 59.398 15.754 15.75 37.121 24.602 59.398 24.602z"/>
 </g>
</svg>
