<?xml version="1.0" encoding="UTF-8"?>
<svg width="1200pt" height="1200pt" version="1.1" viewBox="0 0 1200 1200" xmlns="http://www.w3.org/2000/svg">
 <g fill="#ff814a">
  <path d="m407.72 732.73c0 20.898-16.938 37.836-37.836 37.836-20.895 0-37.836-16.938-37.836-37.836 0-20.895 16.941-37.836 37.836-37.836 20.898 0 37.836 16.941 37.836 37.836"/>
  <path d="m879.56 584.26c0 20.895-16.938 37.836-37.836 37.836-20.895 0-37.836-16.941-37.836-37.836 0-20.898 16.941-37.836 37.836-37.836 20.898 0 37.836 16.938 37.836 37.836"/>
  <path d="m547.46 869.84c0 20.898-16.941 37.836-37.836 37.836-20.898 0-37.836-16.938-37.836-37.836 0-20.895 16.938-37.836 37.836-37.836 20.895 0 37.836 16.941 37.836 37.836"/>
  <path d="m627.45 324.28c0 20.895-16.941 37.836-37.836 37.836-20.898 0-37.836-16.941-37.836-37.836 0-20.898 16.938-37.836 37.836-37.836 20.895 0 37.836 16.938 37.836 37.836"/>
  <path d="m627.46 697.79c0 20.895-16.941 37.836-37.836 37.836-20.898 0-37.836-16.941-37.836-37.836 0-20.898 16.938-37.836 37.836-37.836 20.895 0 37.836 16.938 37.836 37.836"/>
  <path d="m857.84 747.52c-14.258-2.7461-27.938 6.6602-30.625 20.867l-10.453 55.105-71.891-105.52c-8.1602-11.953-24.434-15.059-36.406-6.8984-11.941 8.1602-15.047 24.445-6.8867 36.395l71.891 105.53-55.117-10.453c-14.23-2.7109-27.91 6.6484-30.613 20.844-2.6992 14.219 6.6484 27.926 20.844 30.625l142.98 27.133 27.121-142.99c2.6992-14.219-6.6367-27.914-20.844-30.637z"/>
  <path d="m352.87 521.4-20.461-52.234 116.98 51.156c3.4336 1.5 6.9727 2.207 10.488 2.207 10.094 0 19.727-5.8789 24.012-15.719 5.8086-13.262-0.23828-28.703-13.488-34.5l-116.99-51.156 52.234-20.438c13.465-5.2695 20.113-20.473 14.832-33.949-5.2695-13.465-20.438-20.125-33.949-14.844l-135.5 53.039 53.051 135.52c4.0547 10.332 13.922 16.645 24.395 16.645 3.1797 0 6.4062-0.58984 9.5508-1.8125 13.484-5.2422 20.121-20.434 14.852-33.91z"/>
  <path d="m783.25 481.19c5.2695 0 10.633-1.5977 15.254-4.9219l103.69-74.52-9.0703 55.344c-2.3398 14.281 7.332 27.742 21.613 30.086 1.4297 0.23828 2.8555 0.34766 4.2734 0.34766 12.613 0 23.711-9.1211 25.812-21.961l23.52-143.62-143.61-23.504c-14.293-2.3633-27.742 7.332-30.086 21.613-2.3281 14.281 7.3203 27.742 21.625 30.086l55.344 9.0586-103.69 74.508c-11.746 8.4492-14.438 24.816-5.9766 36.562 5.125 7.125 13.156 10.918 21.305 10.918z"/>
  <path d="m734.71 208.55c0 11.73-9.5078 21.242-21.238 21.242-11.73 0-21.242-9.5117-21.242-21.242s9.5117-21.238 21.242-21.238c11.73 0 21.238 9.5078 21.238 21.238"/>
  <path d="m249.89 659.95c0 11.73-9.5078 21.238-21.238 21.238-11.73 0-21.242-9.5078-21.242-21.238s9.5117-21.242 21.242-21.242c11.73 0 21.238 9.5117 21.238 21.242"/>
  <path d="m138.49 453.65c0 11.73-9.5078 21.238-21.238 21.238-11.734 0-21.242-9.5078-21.242-21.238 0-11.73 9.5078-21.242 21.242-21.242 11.73 0 21.238 9.5117 21.238 21.242"/>
  <path d="m428.96 208.55c0 11.73-9.5117 21.242-21.242 21.242-11.73 0-21.238-9.5117-21.238-21.242s9.5078-21.238 21.238-21.238c11.73 0 21.242 9.5078 21.242 21.238"/>
  <path d="m648.7 998.79c0 11.723-9.5039 21.227-21.227 21.227-11.727 0-21.23-9.5039-21.23-21.227 0-11.727 9.5039-21.23 21.23-21.23 11.723 0 21.227 9.5039 21.227 21.23"/>
  <path d="m1005.5 681.19c0 11.73-9.5078 21.242-21.238 21.242-11.73 0-21.242-9.5117-21.242-21.242 0-11.73 9.5117-21.238 21.242-21.238 11.73 0 21.238 9.5078 21.238 21.238"/>
  <path d="m228.65 869.83c0 11.73-9.5117 21.238-21.242 21.238s-21.238-9.5078-21.238-21.238 9.5078-21.238 21.238-21.238 21.242 9.5078 21.242 21.238"/>
  <path d="m1102.1 463.08c0 11.73-9.5078 21.242-21.238 21.242-11.73 0-21.242-9.5117-21.242-21.242s9.5117-21.238 21.242-21.238c11.73 0 21.238 9.5078 21.238 21.238"/>
 </g>
</svg>
