<?xml version="1.0" encoding="UTF-8"?>
<svg width="1200pt" height="1200pt" version="1.1" viewBox="0 0 1200 1200" xmlns="http://www.w3.org/2000/svg">
 <path d="m639.98 560.02c16.125 16.172 20.953 40.453 12.188 61.547-8.7188 21.094-29.344 34.828-52.172 34.828s-43.453-13.734-52.172-34.828c-8.7656-21.094-3.9375-45.375 12.188-61.547 10.5-10.781 24.938-16.828 39.984-16.828s29.484 6.0469 39.984 16.828zm313.5 393.52v-0.046875c-93.75 93.797-220.92 146.48-353.53 146.53-132.61 0-259.82-52.688-353.58-146.44-93.797-93.797-146.48-220.97-146.48-353.58 0-132.61 52.688-259.78 146.48-353.58 93.75-93.75 220.97-146.44 353.58-146.44 132.61 0.046875 259.78 52.734 353.53 146.53 93.75 93.75 146.39 220.92 146.39 353.48s-52.641 259.74-146.39 353.48zm-166.5-225.52-83.484-206.48v-0.046875c-4.4531-11.438-13.547-20.531-24.984-24.984l-206.53-83.484c-16.875-7.1719-36.422-3.375-49.359 9.6094-12.984 12.938-16.781 32.484-9.6094 49.359l83.484 206.48v0.046875c4.4531 11.438 13.547 20.531 24.984 24.984l206.48 83.484h0.046875c16.875 7.1719 36.422 3.375 49.359-9.6094 12.984-12.938 16.781-32.484 9.6094-49.359z" fill="#ff814a"/>
</svg>
